<svg width="40" height="40" viewBox="0 0 40 40" fill="none" xmlns="http://www.w3.org/2000/svg">
<path d="M40 31.278L38.6667 15.278C38.6528 15.1109 38.5764 14.9553 38.4529 14.842C38.3293 14.7287 38.1676 14.6661 38 14.6667H33.3333V5.33333H34.7807C34.9377 5.77841 35.2472 6.1536 35.6542 6.39254C36.0612 6.63147 36.5397 6.71876 37.0048 6.63895C37.47 6.55915 37.892 6.31739 38.1961 5.95645C38.5002 5.59552 38.6669 5.13865 38.6667 4.66667V2C38.6667 1.82319 38.5964 1.65362 38.4714 1.5286C38.3464 1.40357 38.1768 1.33333 38 1.33333H35.886C35.7476 0.943661 35.4921 0.60634 35.1544 0.367629C34.8168 0.128917 34.4135 0.000504499 34 0H26C25.1163 0.00105857 24.269 0.352588 23.6441 0.97748C23.0193 1.60237 22.6677 2.4496 22.6667 3.33333V14.6667H13.3333V9.33333H18C18.1768 9.33333 18.3464 9.2631 18.4714 9.13807C18.5964 9.01305 18.6667 8.84348 18.6667 8.66667V2C18.6667 1.82319 18.5964 1.65362 18.4714 1.5286C18.3464 1.40357 18.1768 1.33333 18 1.33333H4.66667C4.48986 1.33333 4.32029 1.40357 4.19526 1.5286C4.07024 1.65362 4 1.82319 4 2V8.66667C4 8.84348 4.07024 9.01305 4.19526 9.13807C4.32029 9.2631 4.48986 9.33333 4.66667 9.33333H9.33333V14.6667H2C1.83237 14.6661 1.67068 14.7287 1.54713 14.842C1.42358 14.9553 1.34725 15.1109 1.33333 15.278L0 31.3333V39.3333C0 39.5101 0.0702379 39.6797 0.195262 39.8047C0.320286 39.9298 0.489856 40 0.666667 40H39.3333C39.5101 40 39.6797 39.9298 39.8047 39.8047C39.9298 39.6797 40 39.5101 40 39.3333V31.278ZM37.3333 4.66667C37.3333 4.84348 37.2631 5.01305 37.1381 5.13807C37.0131 5.2631 36.8435 5.33333 36.6667 5.33333C36.4899 5.33333 36.3203 5.2631 36.1953 5.13807C36.0702 5.01305 36 4.84348 36 4.66667V2.66667H37.3333V4.66667ZM34.6667 2V4H33.3333V2C33.3333 1.82319 33.4036 1.65362 33.5286 1.5286C33.6536 1.40357 33.8232 1.33333 34 1.33333C34.1768 1.33333 34.3464 1.40357 34.4714 1.5286C34.5964 1.65362 34.6667 1.82319 34.6667 2ZM24 3.33333C24 2.8029 24.2107 2.29419 24.5858 1.91912C24.9609 1.54405 25.4696 1.33333 26 1.33333H32.1227C32.0437 1.54684 32.0022 1.77237 32 2V17.3333H24V3.33333ZM5.33333 2.66667H17.3333V8H5.33333V2.66667ZM10.6667 9.33333H12V14.6667H10.6667V9.33333ZM2.61333 16H22.6667V18C22.6667 18.1768 22.7369 18.3464 22.8619 18.4714C22.987 18.5964 23.1565 18.6667 23.3333 18.6667H32.6667C32.8435 18.6667 33.0131 18.5964 33.1381 18.4714C33.2631 18.3464 33.3333 18.1768 33.3333 18V16H37.3867L38.6113 30.6667H1.39133L2.61333 16ZM1.33333 38.6667V32H38.6667V38.6667H1.33333Z" fill="white"/>
<path d="M14.6667 20H16V21.3333H14.6667V20Z" fill="white"/>
<path d="M12 20H13.3333V21.3333H12V20Z" fill="white"/>
<path d="M9.33333 20H10.6667V21.3333H9.33333V20Z" fill="white"/>
<path d="M14.6667 5.33333H16V6.66667H14.6667V5.33333Z" fill="white"/>
<path d="M12 5.33333H13.3333V6.66667H12V5.33333Z" fill="white"/>
<path d="M9.33333 5.33333H10.6667V6.66667H9.33333V5.33333Z" fill="white"/>
<path d="M25.3333 3.33333H26.6667V4.66667H25.3333V3.33333Z" fill="white"/>
<path d="M28 3.33333H30.6667V4.66667H28V3.33333Z" fill="white"/>
<path d="M25.3333 6H26.6667V7.33333H25.3333V6Z" fill="white"/>
<path d="M28 6H30.6667V7.33333H28V6Z" fill="white"/>
<path d="M25.3333 8.66667H26.6667V10H25.3333V8.66667Z" fill="white"/>
<path d="M28 8.66667H30.6667V10H28V8.66667Z" fill="white"/>
<path d="M25.3333 11.3333H26.6667V12.6667H25.3333V11.3333Z" fill="white"/>
<path d="M28 11.3333H30.6667V12.6667H28V11.3333Z" fill="white"/>
<path d="M25.3333 14H30.6667V15.3333H25.3333V14Z" fill="white"/>
<path d="M4.66667 24H18C18.1768 24 18.3464 23.9298 18.4714 23.8047C18.5964 23.6797 18.6667 23.5101 18.6667 23.3333V18C18.6667 17.8232 18.5964 17.6536 18.4714 17.5286C18.3464 17.4036 18.1768 17.3333 18 17.3333H4.66667C4.48986 17.3333 4.32029 17.4036 4.19526 17.5286C4.07024 17.6536 4 17.8232 4 18V23.3333C4 23.5101 4.07024 23.6797 4.19526 23.8047C4.32029 23.9298 4.48986 24 4.66667 24ZM5.33333 18.6667H17.3333V22.6667H5.33333V18.6667Z" fill="white"/>
<path d="M20 33.3333C19.6044 33.3333 19.2178 33.4506 18.8889 33.6704C18.56 33.8902 18.3036 34.2025 18.1522 34.568C18.0009 34.9334 17.9613 35.3356 18.0384 35.7235C18.1156 36.1115 18.3061 36.4678 18.5858 36.7475C18.8655 37.0273 19.2219 37.2177 19.6098 37.2949C19.9978 37.3721 20.3999 37.3325 20.7654 37.1811C21.1308 37.0297 21.4432 36.7734 21.6629 36.4445C21.8827 36.1156 22 35.7289 22 35.3333C22 34.8029 21.7893 34.2942 21.4142 33.9191C21.0391 33.544 20.5304 33.3333 20 33.3333ZM20 36C19.8681 36 19.7393 35.9609 19.6296 35.8876C19.52 35.8144 19.4345 35.7103 19.3841 35.5885C19.3336 35.4666 19.3204 35.3326 19.3461 35.2033C19.3719 35.074 19.4354 34.9552 19.5286 34.8619C19.6218 34.7687 19.7406 34.7052 19.8699 34.6795C19.9993 34.6538 20.1333 34.667 20.2551 34.7174C20.3769 34.7679 20.4811 34.8533 20.5543 34.963C20.6276 35.0726 20.6667 35.2015 20.6667 35.3333C20.6667 35.5101 20.5964 35.6797 20.4714 35.8047C20.3464 35.9298 20.1768 36 20 36Z" fill="white"/>
<path d="M22 24H24.6667C24.8435 24 25.013 23.9298 25.1381 23.8047C25.2631 23.6797 25.3333 23.5101 25.3333 23.3333V20.6667C25.3333 20.4899 25.2631 20.3203 25.1381 20.1953C25.013 20.0702 24.8435 20 24.6667 20H22C21.8232 20 21.6536 20.0702 21.5286 20.1953C21.4036 20.3203 21.3333 20.4899 21.3333 20.6667V23.3333C21.3333 23.5101 21.4036 23.6797 21.5286 23.8047C21.6536 23.9298 21.8232 24 22 24ZM22.6667 21.3333H24V22.6667H22.6667V21.3333Z" fill="white"/>
<path d="M27.3333 24H30C30.1768 24 30.3464 23.9298 30.4714 23.8047C30.5964 23.6797 30.6667 23.5101 30.6667 23.3333V20.6667C30.6667 20.4899 30.5964 20.3203 30.4714 20.1953C30.3464 20.0702 30.1768 20 30 20H27.3333C27.1565 20 26.987 20.0702 26.8619 20.1953C26.7369 20.3203 26.6667 20.4899 26.6667 20.6667V23.3333C26.6667 23.5101 26.7369 23.6797 26.8619 23.8047C26.987 23.9298 27.1565 24 27.3333 24ZM28 21.3333H29.3333V22.6667H28V21.3333Z" fill="white"/>
<path d="M32.6667 24H35.3333C35.5101 24 35.6797 23.9298 35.8047 23.8047C35.9298 23.6797 36 23.5101 36 23.3333V20.6667C36 20.4899 35.9298 20.3203 35.8047 20.1953C35.6797 20.0702 35.5101 20 35.3333 20H32.6667C32.4899 20 32.3203 20.0702 32.1953 20.1953C32.0702 20.3203 32 20.4899 32 20.6667V23.3333C32 23.5101 32.0702 23.6797 32.1953 23.8047C32.3203 23.9298 32.4899 24 32.6667 24ZM33.3333 21.3333H34.6667V22.6667H33.3333V21.3333Z" fill="white"/>
<path d="M22 29.3333H24.6667C24.8435 29.3333 25.013 29.2631 25.1381 29.1381C25.2631 29.013 25.3333 28.8435 25.3333 28.6667V26C25.3333 25.8232 25.2631 25.6536 25.1381 25.5286C25.013 25.4036 24.8435 25.3333 24.6667 25.3333H22C21.8232 25.3333 21.6536 25.4036 21.5286 25.5286C21.4036 25.6536 21.3333 25.8232 21.3333 26V28.6667C21.3333 28.8435 21.4036 29.013 21.5286 29.1381C21.6536 29.2631 21.8232 29.3333 22 29.3333ZM22.6667 26.6667H24V28H22.6667V26.6667Z" fill="white"/>
<path d="M27.3333 29.3333H30C30.1768 29.3333 30.3464 29.2631 30.4714 29.1381C30.5964 29.013 30.6667 28.8435 30.6667 28.6667V26C30.6667 25.8232 30.5964 25.6536 30.4714 25.5286C30.3464 25.4036 30.1768 25.3333 30 25.3333H27.3333C27.1565 25.3333 26.987 25.4036 26.8619 25.5286C26.7369 25.6536 26.6667 25.8232 26.6667 26V28.6667C26.6667 28.8435 26.7369 29.013 26.8619 29.1381C26.987 29.2631 27.1565 29.3333 27.3333 29.3333ZM28 26.6667H29.3333V28H28V26.6667Z" fill="white"/>
<path d="M32.6667 29.3333H35.3333C35.5101 29.3333 35.6797 29.2631 35.8047 29.1381C35.9298 29.013 36 28.8435 36 28.6667V26C36 25.8232 35.9298 25.6536 35.8047 25.5286C35.6797 25.4036 35.5101 25.3333 35.3333 25.3333H32.6667C32.4899 25.3333 32.3203 25.4036 32.1953 25.5286C32.0702 25.6536 32 25.8232 32 26V28.6667C32 28.8435 32.0702 29.013 32.1953 29.1381C32.3203 29.2631 32.4899 29.3333 32.6667 29.3333ZM33.3333 26.6667H34.6667V28H33.3333V26.6667Z" fill="white"/>
<path d="M4 25.3333H6.66667V26.6667H4V25.3333Z" fill="white"/>
<path d="M8 25.3333H10.6667V26.6667H8V25.3333Z" fill="white"/>
<path d="M12 25.3333H14.6667V26.6667H12V25.3333Z" fill="white"/>
<path d="M16 25.3333H18.6667V26.6667H16V25.3333Z" fill="white"/>
<path d="M4 28H6.66667V29.3333H4V28Z" fill="white"/>
<path d="M8 28H10.6667V29.3333H8V28Z" fill="white"/>
<path d="M12 28H14.6667V29.3333H12V28Z" fill="white"/>
<path d="M16 28H18.6667V29.3333H16V28Z" fill="white"/>
</svg>
