<svg width="40" height="40" viewBox="0 0 40 40" fill="none" xmlns="http://www.w3.org/2000/svg">
<path d="M36.6667 0H3.33333C2.4496 0.00105857 1.60237 0.352588 0.97748 0.97748C0.352588 1.60237 0.00105857 2.4496 0 3.33333V28.6667C0.00105857 29.5504 0.352588 30.3976 0.97748 31.0225C1.60237 31.6474 2.4496 31.9989 3.33333 32H15.3333V36.0667C14.5809 36.2214 13.9049 36.6308 13.4191 37.2258C12.9334 37.8209 12.6676 38.5652 12.6667 39.3333C12.6667 39.5101 12.7369 39.6797 12.8619 39.8047C12.987 39.9298 13.1565 40 13.3333 40H26.6667C26.8435 40 27.013 39.9298 27.1381 39.8047C27.2631 39.6797 27.3333 39.5101 27.3333 39.3333C27.3324 38.5652 27.0666 37.8209 26.5809 37.2258C26.0951 36.6308 25.4191 36.2214 24.6667 36.0667V32H36.6667C37.5504 31.9989 38.3976 31.6474 39.0225 31.0225C39.6474 30.3976 39.9989 29.5504 40 28.6667V3.33333C39.9989 2.4496 39.6474 1.60237 39.0225 0.97748C38.3976 0.352588 37.5504 0.00105857 36.6667 0ZM3.33333 1.33333H36.6667C37.1971 1.33333 37.7058 1.54405 38.0809 1.91912C38.456 2.29419 38.6667 2.8029 38.6667 3.33333V26.6667H37.3333V4C37.3333 3.64638 37.1929 3.30724 36.9428 3.05719C36.6928 2.80714 36.3536 2.66667 36 2.66667H4C3.64638 2.66667 3.30724 2.80714 3.05719 3.05719C2.80714 3.30724 2.66667 3.64638 2.66667 4V26.6667H1.33333V3.33333C1.33333 2.8029 1.54405 2.29419 1.91912 1.91912C2.29419 1.54405 2.8029 1.33333 3.33333 1.33333ZM36 5.33333H4V4H36V5.33333ZM4 6.66667H36V26.6667H4V6.66667ZM25.886 38.6667H14.114C14.2524 38.277 14.5079 37.9397 14.8456 37.701C15.1832 37.4623 15.5865 37.3338 16 37.3333H24C24.4135 37.3338 24.8168 37.4623 25.1544 37.701C25.4921 37.9397 25.7476 38.277 25.886 38.6667ZM23.3333 36H16.6667V32H23.3333V36ZM36.6667 30.6667H3.33333C2.8029 30.6667 2.29419 30.456 1.91912 30.0809C1.54405 29.7058 1.33333 29.1971 1.33333 28.6667V28H38.6667V28.6667C38.6667 29.1971 38.456 29.7058 38.0809 30.0809C37.7058 30.456 37.1971 30.6667 36.6667 30.6667Z" fill="white"/>
<path d="M18.6667 28.6667H21.3333V30H18.6667V28.6667Z" fill="white"/>
<path d="M32.6667 9.33333H22C21.4696 9.33333 20.9609 9.54405 20.5858 9.91912C20.2107 10.2942 20 10.8029 20 11.3333V18C20 18.5304 20.2107 19.0391 20.5858 19.4142C20.9609 19.7893 21.4696 20 22 20H32.6667C33.1971 20 33.7058 19.7893 34.0809 19.4142C34.456 19.0391 34.6667 18.5304 34.6667 18V11.3333C34.6667 10.8029 34.456 10.2942 34.0809 9.91912C33.7058 9.54405 33.1971 9.33333 32.6667 9.33333ZM22 10.6667H32.6667C32.8435 10.6667 33.0131 10.7369 33.1381 10.8619C33.2631 10.987 33.3333 11.1565 33.3333 11.3333V12H21.3333V11.3333C21.3333 11.1565 21.4036 10.987 21.5286 10.8619C21.6536 10.7369 21.8232 10.6667 22 10.6667ZM32.6667 18.6667H22C21.8232 18.6667 21.6536 18.5964 21.5286 18.4714C21.4036 18.3464 21.3333 18.1768 21.3333 18V13.3333H33.3333V18C33.3333 18.1768 33.2631 18.3464 33.1381 18.4714C33.0131 18.5964 32.8435 18.6667 32.6667 18.6667Z" fill="white"/>
<path d="M26.6667 16H28V17.3333H26.6667V16Z" fill="white"/>
<path d="M29.3333 16H32V17.3333H29.3333V16Z" fill="white"/>
<path d="M16.6667 8H6C5.82319 8 5.65362 8.07024 5.5286 8.19526C5.40357 8.32029 5.33333 8.48986 5.33333 8.66667V11.3333C5.33333 11.5101 5.40357 11.6797 5.5286 11.8047C5.65362 11.9298 5.82319 12 6 12H16.6667C16.8435 12 17.013 11.9298 17.1381 11.8047C17.2631 11.6797 17.3333 11.5101 17.3333 11.3333V8.66667C17.3333 8.48986 17.2631 8.32029 17.1381 8.19526C17.013 8.07024 16.8435 8 16.6667 8ZM16 10.6667H6.66667V9.33333H16V10.6667Z" fill="white"/>
<path d="M16.6667 13.3333H6C5.82319 13.3333 5.65362 13.4036 5.5286 13.5286C5.40357 13.6536 5.33333 13.8232 5.33333 14V16.6667C5.33333 16.8435 5.40357 17.013 5.5286 17.1381C5.65362 17.2631 5.82319 17.3333 6 17.3333H16.6667C16.8435 17.3333 17.013 17.2631 17.1381 17.1381C17.2631 17.013 17.3333 16.8435 17.3333 16.6667V14C17.3333 13.8232 17.2631 13.6536 17.1381 13.5286C17.013 13.4036 16.8435 13.3333 16.6667 13.3333ZM16 16H6.66667V14.6667H16V16Z" fill="white"/>
<path d="M16.6667 18.6667H6C5.82319 18.6667 5.65362 18.7369 5.5286 18.8619C5.40357 18.987 5.33333 19.1565 5.33333 19.3333V22C5.33333 22.1768 5.40357 22.3464 5.5286 22.4714C5.65362 22.5964 5.82319 22.6667 6 22.6667H16.6667C16.8435 22.6667 17.013 22.5964 17.1381 22.4714C17.2631 22.3464 17.3333 22.1768 17.3333 22V19.3333C17.3333 19.1565 17.2631 18.987 17.1381 18.8619C17.013 18.7369 16.8435 18.6667 16.6667 18.6667ZM16 21.3333H6.66667V20H16V21.3333Z" fill="white"/>
<path d="M5.33333 24H8V25.3333H5.33333V24Z" fill="white"/>
<path d="M9.33333 24H17.3333V25.3333H9.33333V24Z" fill="white"/>
<path d="M20 21.3333H22.6667V22.6667H20V21.3333Z" fill="white"/>
<path d="M24 21.3333H34.6667V22.6667H24V21.3333Z" fill="white"/>
<path d="M20 24H30.6667V25.3333H20V24Z" fill="white"/>
<path d="M32 24H34.6667V25.3333H32V24Z" fill="white"/>
</svg>
