<svg width="40" height="40" viewBox="0 0 40 40" fill="none" xmlns="http://www.w3.org/2000/svg">
<path d="M38 16H22.6667V15.3333C22.6667 15.1565 22.5964 14.987 22.4714 14.8619C22.3464 14.7369 22.1768 14.6667 22 14.6667H20V13.3333H26.6667C27.7272 13.3323 28.744 12.9105 29.4939 12.1606C30.2438 11.4107 30.6656 10.3939 30.6667 9.33333V7.33333C30.6667 7.15652 30.5964 6.98695 30.4714 6.86193C30.3464 6.73691 30.1768 6.66667 30 6.66667H24V4C23.9989 2.93946 23.5772 1.92266 22.8273 1.17274C22.0773 0.422826 21.0605 0.00105895 20 0H6C5.11627 0.00105857 4.26904 0.352588 3.64415 0.97748C3.01925 1.60237 2.66773 2.4496 2.66667 3.33333V8.06667C1.91428 8.2214 1.23823 8.63079 0.752479 9.22583C0.266727 9.82088 0.000969683 10.5652 0 11.3333V36.6667C0.00105857 37.5504 0.352588 38.3976 0.97748 39.0225C1.60237 39.6474 2.4496 39.9989 3.33333 40H16.6667C17.5504 39.9989 18.3976 39.6474 19.0225 39.0225C19.6474 38.3976 19.9989 37.5504 20 36.6667V33.3333H22C22.1768 33.3333 22.3464 33.2631 22.4714 33.1381C22.5964 33.0131 22.6667 32.8435 22.6667 32.6667V32H38C38.5304 32 39.0391 31.7893 39.4142 31.4142C39.7893 31.0391 40 30.5304 40 30V18C40 17.4696 39.7893 16.9609 39.4142 16.5858C39.0391 16.2107 38.5304 16 38 16ZM29.3333 9.33333C29.3333 10.0406 29.0524 10.7189 28.5523 11.219C28.0522 11.719 27.3739 12 26.6667 12C25.9594 12 25.2811 11.719 24.781 11.219C24.281 10.7189 24 10.0406 24 9.33333V8H29.3333V9.33333ZM4 3.33333C4 2.8029 4.21071 2.29419 4.58579 1.91912C4.96086 1.54405 5.46957 1.33333 6 1.33333H17.0213C16.3631 2.06549 15.9992 3.01545 16 4V13.3333H4V3.33333ZM18.6667 36.6667C18.6667 37.1971 18.456 37.7058 18.0809 38.0809C17.7058 38.456 17.1971 38.6667 16.6667 38.6667H3.33333C2.8029 38.6667 2.29419 38.456 1.91912 38.0809C1.54405 37.7058 1.33333 37.1971 1.33333 36.6667V11.3333C1.33504 10.9212 1.46406 10.5196 1.70273 10.1835C1.94139 9.84749 2.27806 9.59339 2.66667 9.456V14C2.66667 14.1768 2.7369 14.3464 2.86193 14.4714C2.98695 14.5964 3.15652 14.6667 3.33333 14.6667H16.6667C16.8435 14.6667 17.013 14.5964 17.1381 14.4714C17.2631 14.3464 17.3333 14.1768 17.3333 14V9.456C17.7219 9.59339 18.0586 9.84749 18.2973 10.1835C18.5359 10.5196 18.665 10.9212 18.6667 11.3333V36.6667ZM17.3333 8.06667V4C17.3333 3.29276 17.6143 2.61448 18.1144 2.11438C18.6145 1.61428 19.2928 1.33333 20 1.33333C20.7072 1.33333 21.3855 1.61428 21.8856 2.11438C22.3857 2.61448 22.6667 3.29276 22.6667 4V9.33333C22.6669 10.3187 23.0328 11.2689 23.6933 12H20V11.3333C19.999 10.5652 19.7333 9.82088 19.2475 9.22583C18.7618 8.63079 18.0857 8.2214 17.3333 8.06667ZM21.3333 32H20V16H21.3333V32ZM38 17.3333C38.1768 17.3333 38.3464 17.4036 38.4714 17.5286C38.5964 17.6536 38.6667 17.8232 38.6667 18V20H22.6667V17.3333H38ZM38 30.6667H22.6667V21.3333H38.6667V30C38.6667 30.1768 38.5964 30.3464 38.4714 30.4714C38.3464 30.5964 38.1768 30.6667 38 30.6667Z" fill="white"/>
<path d="M6 22.6667H3.33333C3.15652 22.6667 2.98695 22.7369 2.86193 22.8619C2.7369 22.987 2.66667 23.1565 2.66667 23.3333V26C2.66667 26.1768 2.7369 26.3464 2.86193 26.4714C2.98695 26.5964 3.15652 26.6667 3.33333 26.6667H6C6.17681 26.6667 6.34638 26.5964 6.4714 26.4714C6.59643 26.3464 6.66667 26.1768 6.66667 26V23.3333C6.66667 23.1565 6.59643 22.987 6.4714 22.8619C6.34638 22.7369 6.17681 22.6667 6 22.6667ZM5.33333 25.3333H4V24H5.33333V25.3333Z" fill="white"/>
<path d="M11.3333 22.6667H8.66667C8.48986 22.6667 8.32029 22.7369 8.19526 22.8619C8.07024 22.987 8 23.1565 8 23.3333V26C8 26.1768 8.07024 26.3464 8.19526 26.4714C8.32029 26.5964 8.48986 26.6667 8.66667 26.6667H11.3333C11.5101 26.6667 11.6797 26.5964 11.8047 26.4714C11.9298 26.3464 12 26.1768 12 26V23.3333C12 23.1565 11.9298 22.987 11.8047 22.8619C11.6797 22.7369 11.5101 22.6667 11.3333 22.6667ZM10.6667 25.3333H9.33333V24H10.6667V25.3333Z" fill="white"/>
<path d="M16.6667 22.6667H14C13.8232 22.6667 13.6536 22.7369 13.5286 22.8619C13.4036 22.987 13.3333 23.1565 13.3333 23.3333V26C13.3333 26.1768 13.4036 26.3464 13.5286 26.4714C13.6536 26.5964 13.8232 26.6667 14 26.6667H16.6667C16.8435 26.6667 17.013 26.5964 17.1381 26.4714C17.2631 26.3464 17.3333 26.1768 17.3333 26V23.3333C17.3333 23.1565 17.2631 22.987 17.1381 22.8619C17.013 22.7369 16.8435 22.6667 16.6667 22.6667ZM16 25.3333H14.6667V24H16V25.3333Z" fill="white"/>
<path d="M6 28H3.33333C3.15652 28 2.98695 28.0702 2.86193 28.1953C2.7369 28.3203 2.66667 28.4899 2.66667 28.6667V31.3333C2.66667 31.5101 2.7369 31.6797 2.86193 31.8047C2.98695 31.9298 3.15652 32 3.33333 32H6C6.17681 32 6.34638 31.9298 6.4714 31.8047C6.59643 31.6797 6.66667 31.5101 6.66667 31.3333V28.6667C6.66667 28.4899 6.59643 28.3203 6.4714 28.1953C6.34638 28.0702 6.17681 28 6 28ZM5.33333 30.6667H4V29.3333H5.33333V30.6667Z" fill="white"/>
<path d="M11.3333 28H8.66667C8.48986 28 8.32029 28.0702 8.19526 28.1953C8.07024 28.3203 8 28.4899 8 28.6667V31.3333C8 31.5101 8.07024 31.6797 8.19526 31.8047C8.32029 31.9298 8.48986 32 8.66667 32H11.3333C11.5101 32 11.6797 31.9298 11.8047 31.8047C11.9298 31.6797 12 31.5101 12 31.3333V28.6667C12 28.4899 11.9298 28.3203 11.8047 28.1953C11.6797 28.0702 11.5101 28 11.3333 28ZM10.6667 30.6667H9.33333V29.3333H10.6667V30.6667Z" fill="white"/>
<path d="M16.6667 28H14C13.8232 28 13.6536 28.0702 13.5286 28.1953C13.4036 28.3203 13.3333 28.4899 13.3333 28.6667V31.3333C13.3333 31.5101 13.4036 31.6797 13.5286 31.8047C13.6536 31.9298 13.8232 32 14 32H16.6667C16.8435 32 17.013 31.9298 17.1381 31.8047C17.2631 31.6797 17.3333 31.5101 17.3333 31.3333V28.6667C17.3333 28.4899 17.2631 28.3203 17.1381 28.1953C17.013 28.0702 16.8435 28 16.6667 28ZM16 30.6667H14.6667V29.3333H16V30.6667Z" fill="white"/>
<path d="M6 33.3333H3.33333C3.15652 33.3333 2.98695 33.4036 2.86193 33.5286C2.7369 33.6536 2.66667 33.8232 2.66667 34V36.6667C2.66667 36.8435 2.7369 37.0131 2.86193 37.1381C2.98695 37.2631 3.15652 37.3333 3.33333 37.3333H6C6.17681 37.3333 6.34638 37.2631 6.4714 37.1381C6.59643 37.0131 6.66667 36.8435 6.66667 36.6667V34C6.66667 33.8232 6.59643 33.6536 6.4714 33.5286C6.34638 33.4036 6.17681 33.3333 6 33.3333ZM5.33333 36H4V34.6667H5.33333V36Z" fill="white"/>
<path d="M11.3333 33.3333H8.66667C8.48986 33.3333 8.32029 33.4036 8.19526 33.5286C8.07024 33.6536 8 33.8232 8 34V36.6667C8 36.8435 8.07024 37.0131 8.19526 37.1381C8.32029 37.2631 8.48986 37.3333 8.66667 37.3333H11.3333C11.5101 37.3333 11.6797 37.2631 11.8047 37.1381C11.9298 37.0131 12 36.8435 12 36.6667V34C12 33.8232 11.9298 33.6536 11.8047 33.5286C11.6797 33.4036 11.5101 33.3333 11.3333 33.3333ZM10.6667 36H9.33333V34.6667H10.6667V36Z" fill="white"/>
<path d="M16.6667 33.3333H14C13.8232 33.3333 13.6536 33.4036 13.5286 33.5286C13.4036 33.6536 13.3333 33.8232 13.3333 34V36.6667C13.3333 36.8435 13.4036 37.0131 13.5286 37.1381C13.6536 37.2631 13.8232 37.3333 14 37.3333H16.6667C16.8435 37.3333 17.013 37.2631 17.1381 37.1381C17.2631 37.0131 17.3333 36.8435 17.3333 36.6667V34C17.3333 33.8232 17.2631 33.6536 17.1381 33.5286C17.013 33.4036 16.8435 33.3333 16.6667 33.3333ZM16 36H14.6667V34.6667H16V36Z" fill="white"/>
<path d="M16.6667 17.3333H3.33333C3.15652 17.3333 2.98695 17.4036 2.86193 17.5286C2.7369 17.6536 2.66667 17.8232 2.66667 18V20.6667C2.66667 20.8435 2.7369 21.013 2.86193 21.1381C2.98695 21.2631 3.15652 21.3333 3.33333 21.3333H16.6667C16.8435 21.3333 17.013 21.2631 17.1381 21.1381C17.2631 21.013 17.3333 20.8435 17.3333 20.6667V18C17.3333 17.8232 17.2631 17.6536 17.1381 17.5286C17.013 17.4036 16.8435 17.3333 16.6667 17.3333ZM16 20H4V18.6667H16V20Z" fill="white"/>
<path d="M35.3333 25.3333C34.8397 25.3351 34.3644 25.5204 34 25.8533C33.7133 25.5927 33.3571 25.421 32.9746 25.3591C32.5921 25.2971 32.1999 25.3476 31.8456 25.5043C31.4913 25.6611 31.1901 25.9174 30.9787 26.2421C30.7673 26.5668 30.6548 26.9459 30.6548 27.3333C30.6548 27.7208 30.7673 28.0999 30.9787 28.4246C31.1901 28.7493 31.4913 29.0056 31.8456 29.1623C32.1999 29.3191 32.5921 29.3696 32.9746 29.3076C33.3571 29.2456 33.7133 29.0739 34 28.8133C34.2408 29.0322 34.5313 29.189 34.8464 29.2701C35.1615 29.3512 35.4916 29.3543 35.8081 29.279C36.1247 29.2037 36.4181 29.0523 36.6628 28.8379C36.9076 28.6235 37.0964 28.3527 37.2128 28.0489C37.3292 27.745 37.3697 27.4174 37.3308 27.0943C37.292 26.7713 37.1749 26.4626 36.9897 26.1951C36.8045 25.9276 36.5569 25.7092 36.2683 25.5591C35.9796 25.4089 35.6587 25.3314 35.3333 25.3333ZM32.6667 28C32.5348 28 32.4059 27.9609 32.2963 27.8876C32.1867 27.8144 32.1012 27.7103 32.0508 27.5885C32.0003 27.4666 31.9871 27.3326 32.0128 27.2033C32.0385 27.074 32.102 26.9552 32.1953 26.8619C32.2885 26.7687 32.4073 26.7052 32.5366 26.6795C32.6659 26.6538 32.8 26.667 32.9218 26.7174C33.0436 26.7679 33.1477 26.8533 33.221 26.963C33.2942 27.0726 33.3333 27.2015 33.3333 27.3333C33.3333 27.5101 33.2631 27.6797 33.1381 27.8047C33.0131 27.9298 32.8435 28 32.6667 28ZM35.3333 28C35.2015 28 35.0726 27.9609 34.963 27.8876C34.8533 27.8144 34.7679 27.7103 34.7174 27.5885C34.667 27.4666 34.6538 27.3326 34.6795 27.2033C34.7052 27.074 34.7687 26.9552 34.8619 26.8619C34.9552 26.7687 35.074 26.7052 35.2033 26.6795C35.3326 26.6538 35.4666 26.667 35.5885 26.7174C35.7103 26.7679 35.8144 26.8533 35.8876 26.963C35.9609 27.0726 36 27.2015 36 27.3333C36 27.5101 35.9298 27.6797 35.8047 27.8047C35.6797 27.9298 35.5101 28 35.3333 28Z" fill="white"/>
<path d="M5.33333 4H6.66667V5.33333H5.33333V4Z" fill="white"/>
<path d="M8 4H14.6667V5.33333H8V4Z" fill="white"/>
<path d="M5.33333 6.66667H14.6667V8H5.33333V6.66667Z" fill="white"/>
<path d="M5.33333 9.33333H14.6667V10.6667H5.33333V9.33333Z" fill="white"/>
</svg>
