<svg width="99" height="52" viewBox="0 0 99 52" fill="none" xmlns="http://www.w3.org/2000/svg">
<g clip-path="url(#clip0_66_591)">
<path d="M53.0075 23.3657C53.0075 23.3657 40.0171 19.8196 40.0171 14.285C40.0171 5.31993 61.8963 -1.73419 93.3044 6.56031C63.1026 -7.83037 13.8693 4.35372 13.8693 15.4395C13.8693 24.1684 29.3295 24.2526 50.0631 29.1629C50.0631 29.1629 57.7162 31.0837 57.7162 35.7777C57.7162 44.7427 39.2167 52.6508 6.46167 45.443C36.6635 59.8321 85.8967 47.648 85.8967 36.5639C85.8967 26.8605 73.741 28.276 53.0075 23.3657Z" fill="#B2E6F9"/>
<path d="M37.1266 14.5987C35.508 13.0148 33.2133 12.3459 31.0005 12.3079C28.2034 12.2699 25.4047 12.3079 22.6076 12.2881C22.0986 21.4976 21.5028 30.7038 20.9905 39.9116C23.1428 39.9116 25.2917 39.9083 27.4424 39.9133C27.6535 36.4151 27.8646 32.917 28.061 29.4155C28.9792 29.4353 29.899 29.4155 30.8172 29.3346C33.1135 29.1199 35.4245 28.2395 37.035 26.5284C38.7306 24.8074 39.4311 22.3069 39.3542 19.9269C39.364 17.9433 38.5833 15.9481 37.1266 14.5987ZM31.6797 23.169C30.7517 23.899 29.5209 24.0213 28.3867 24.0807C28.5111 21.9353 28.6437 19.7881 28.7632 17.641C29.8172 17.6939 30.9514 17.7665 31.845 18.3991C32.4915 18.855 32.7027 19.689 32.7256 20.4438C32.7436 21.4348 32.485 22.5265 31.6797 23.169ZM1.6416 12.2848C1.1064 21.4959 0.564657 30.7071 0 39.9149C2.16207 39.9083 4.32413 39.9083 6.4862 39.9149C6.86591 32.8872 7.30618 25.8628 7.69407 18.8351C9.57135 18.8351 11.4503 18.8368 13.3292 18.8335C12.9118 25.8595 12.4912 32.8856 12.1131 39.9133C14.2621 39.9116 16.4078 39.905 18.5568 39.9166C19.1067 30.7071 19.6386 21.4959 20.2033 12.2881C14.015 12.2914 7.82828 12.2963 1.6416 12.2848ZM57.6376 13.1469C55.6081 11.7117 52.996 11.3797 50.5835 11.6737C48.2397 11.9462 46.0466 13.1948 44.5588 15.0364C42.4704 17.5353 41.5441 20.794 41.1611 23.9866C40.8517 27.0305 40.801 30.1571 41.5293 33.1482C42.0891 35.4423 43.2479 37.7017 45.2053 39.0825C47.2856 40.5508 49.973 40.8564 52.4329 40.488C54.7456 40.166 56.8733 38.8727 58.3168 37.0312C60.3692 34.4447 61.276 31.1382 61.6557 27.8976C61.9765 24.9247 62.0321 21.8675 61.3005 18.9491C60.7391 16.6946 59.5607 14.4996 57.6376 13.1469ZM54.942 25.5325C54.8078 27.3989 54.6703 29.2784 54.1858 31.0919C53.9027 32.1357 53.3871 33.1829 52.4673 33.794C51.4608 34.4811 49.9435 34.5471 49.0319 33.6585C48.2512 32.9285 48.0286 31.8252 47.8895 30.8078C47.7618 29.6104 47.7422 28.4047 47.8093 27.204C47.8584 24.9792 48.0515 22.7297 48.7537 20.609C49.1416 19.5602 49.7602 18.4652 50.8519 18.0457C51.6146 17.7798 52.5099 17.8491 53.1907 18.3066C53.8356 18.7476 54.23 19.4694 54.4706 20.201C54.9878 21.922 55.0173 23.7471 54.942 25.5325ZM92.9492 18.6386C94.7331 17.755 96.7888 18.2092 98.6105 18.7228C98.7332 16.5196 98.8527 14.3146 99.0016 12.1113C95.7381 11.1567 92.0572 11.4276 89.098 13.175C86.3844 14.7969 84.3009 17.4032 83.1519 20.353C82.0472 23.2681 81.7837 26.4624 82.1094 29.5509C82.4465 32.6907 83.769 35.7991 86.1389 37.9181C88.3402 39.9826 91.4614 40.8052 94.4124 40.5954C95.4009 40.5194 96.3567 40.2403 97.3208 40.0289C97.4795 37.8289 97.599 35.624 97.7267 33.4224C96.2684 33.7874 94.7512 34.2333 93.2438 33.8766C91.4369 33.5429 90.0244 32.0548 89.4303 30.347C88.7052 28.2874 88.7511 26.0181 89.2142 23.9057C89.72 21.7684 90.9573 19.661 92.9492 18.6386ZM76.9833 26.7745C76.9014 26.578 76.8196 26.3484 76.9587 26.1568C77.561 25.0618 78.1093 23.9403 78.71 22.8453C79.6478 21.0335 80.5971 19.2266 81.5513 17.423C82.4318 15.7053 83.3598 14.014 84.2256 12.2881C81.9637 12.2765 79.7034 12.3029 77.4415 12.2749C76.9767 13.137 76.5332 14.0107 76.0733 14.8729C75.1273 16.6748 74.178 18.4734 73.2353 20.2754C72.7197 21.2284 72.2352 22.1946 71.723 23.1492C71.3383 23.8825 70.9373 24.6043 70.5855 25.3541C70.8015 20.9955 71.1272 16.6451 71.3301 12.2864C69.1763 12.2798 67.0224 12.293 64.8701 12.2782C64.3349 21.4943 63.7932 30.7087 63.2253 39.9215C65.3922 39.9083 67.5576 39.91 69.7229 39.9215C69.9341 36.0584 70.1583 32.1952 70.4103 28.3353C70.9439 29.7855 71.6002 31.186 72.155 32.6279C73.0667 34.7569 73.9505 36.899 74.8359 39.0429C74.9587 39.3302 75.0798 39.6209 75.1944 39.9116C77.5692 39.9182 79.944 39.9083 82.3189 39.9166C81.6969 38.3046 81.0112 36.7174 80.3827 35.107C79.2354 32.3389 78.1306 29.5476 76.9833 26.7745Z" fill="#072D82"/>
</g>
<defs>
<clipPath id="clip0_66_591">
<rect width="99" height="52" fill="white"/>
</clipPath>
</defs>
</svg>
