<svg width="14" height="18" viewBox="0 0 14 18" fill="none" xmlns="http://www.w3.org/2000/svg">
<path d="M7 0C3.14018 0 0 2.92437 0 6.51889C0 10.9798 6.26431 17.5287 6.53102 17.8053C6.78154 18.0651 7.21892 18.0647 7.46898 17.8053C7.73569 17.5287 14 10.9798 14 6.51889C13.9999 2.92437 10.8598 0 7 0ZM7 16.5139C4.89174 14.1817 1.26057 9.58051 1.26057 6.51896C1.26057 3.57167 3.83525 1.17394 7 1.17394C10.1648 1.17394 12.7394 3.57167 12.7394 6.51893C12.7394 9.58062 9.10879 14.181 7 16.5139Z" fill="#637DD9"/>
<path d="M7 3.23909C5.05803 3.23909 3.47816 4.71042 3.47816 6.51893C3.47816 8.32744 5.05807 9.79876 7 9.79876C8.94193 9.79876 10.5218 8.32744 10.5218 6.51893C10.5218 4.71042 8.94193 3.23909 7 3.23909ZM7 8.62482C5.75309 8.62482 4.73873 7.68014 4.73873 6.51893C4.73873 5.35771 5.75313 4.41303 7 4.41303C8.24687 4.41303 9.26127 5.35771 9.26127 6.51893C9.26127 7.68014 8.24687 8.62482 7 8.62482Z" fill="#637DD9"/>
</svg>
