<svg width="20" height="20" viewBox="0 0 20 20" fill="none" xmlns="http://www.w3.org/2000/svg">
<path d="M18.5373 14.2762L16.2995 12.0385C15.6826 11.4216 14.6787 11.4216 14.0618 12.0385L13.0446 13.0556C12.5772 13.523 11.8167 13.5228 11.3495 13.0558L6.9407 8.64343C6.47222 8.17497 6.47215 7.41676 6.9407 6.94823C7.10453 6.7844 7.57498 6.31398 7.95785 5.93112C8.57209 5.31694 8.58067 4.31622 7.95725 3.6929L5.72009 1.46287C5.10314 0.845981 4.09928 0.845981 3.48398 1.46125C3.02356 1.91765 2.87505 2.06488 2.6686 2.26953C0.443817 4.49418 0.443817 8.11398 2.6685 10.3386L9.65407 17.3275C11.8841 19.5574 15.4934 19.5576 17.7235 17.3275L18.5373 16.5138C19.1542 15.8969 19.1542 14.8931 18.5373 14.2762ZM4.22827 2.20874C4.43391 2.00311 4.76847 2.00308 4.97478 2.20931L7.21194 4.43934C7.41807 4.64546 7.41807 4.97906 7.21194 5.18521L6.83895 5.55815L3.85722 2.57655L4.22827 2.20874ZM10.4001 16.5817L3.41451 9.59272C1.69325 7.87154 1.59865 5.1689 3.12354 3.33469L6.09663 6.30765C5.31542 7.1932 5.34798 8.5426 6.19461 9.3892L10.6034 13.8015C11.4491 14.6472 12.7985 14.6819 13.6852 13.8996L16.6583 16.8727C14.8299 18.3949 12.1332 18.3147 10.4001 16.5817ZM17.7914 15.7679L17.4184 16.1409L14.4348 13.1573L14.8077 12.7844C15.0134 12.5788 15.3479 12.5787 15.5536 12.7844L17.7914 15.022C17.9971 15.2277 17.9971 15.5623 17.7914 15.7679Z" fill="#637DD9" stroke="#637DD9" stroke-width="0.2"/>
</svg>
