<svg width="182" height="182" viewBox="0 0 182 182" fill="none" xmlns="http://www.w3.org/2000/svg">
<g opacity="0.15">
<circle cx="178.75" cy="178.75" r="3.25" fill="#637DD9"/>
<circle cx="159.25" cy="178.75" r="3.25" fill="#637DD9"/>
<circle cx="139.75" cy="178.75" r="3.25" fill="#637DD9"/>
<circle cx="120.25" cy="178.75" r="3.25" fill="#637DD9"/>
<circle cx="100.75" cy="178.75" r="3.25" fill="#637DD9"/>
<circle cx="81.25" cy="178.75" r="3.25" fill="#637DD9"/>
<circle cx="61.75" cy="178.75" r="3.25" fill="#637DD9"/>
<circle cx="42.25" cy="178.75" r="3.25" fill="#637DD9"/>
<circle cx="22.75" cy="178.75" r="3.25" fill="#637DD9"/>
<circle cx="3.25" cy="178.75" r="3.25" fill="#637DD9"/>
<circle cx="178.75" cy="159.25" r="3.25" fill="#637DD9"/>
<circle cx="159.25" cy="159.25" r="3.25" fill="#637DD9"/>
<circle cx="139.75" cy="159.25" r="3.25" fill="#637DD9"/>
<circle cx="120.25" cy="159.25" r="3.25" fill="#637DD9"/>
<circle cx="100.75" cy="159.25" r="3.25" fill="#637DD9"/>
<circle cx="81.25" cy="159.25" r="3.25" fill="#637DD9"/>
<circle cx="61.75" cy="159.25" r="3.25" fill="#637DD9"/>
<circle cx="42.25" cy="159.25" r="3.25" fill="#637DD9"/>
<circle cx="22.75" cy="159.25" r="3.25" fill="#637DD9"/>
<circle cx="3.25" cy="159.25" r="3.25" fill="#637DD9"/>
<circle cx="178.75" cy="139.75" r="3.25" fill="#637DD9"/>
<circle cx="159.25" cy="139.75" r="3.25" fill="#637DD9"/>
<circle cx="139.75" cy="139.75" r="3.25" fill="#637DD9"/>
<circle cx="120.25" cy="139.75" r="3.25" fill="#637DD9"/>
<circle cx="100.75" cy="139.75" r="3.25" fill="#637DD9"/>
<circle cx="81.25" cy="139.75" r="3.25" fill="#637DD9"/>
<circle cx="61.75" cy="139.75" r="3.25" fill="#637DD9"/>
<circle cx="42.25" cy="139.75" r="3.25" fill="#637DD9"/>
<circle cx="22.75" cy="139.75" r="3.25" fill="#637DD9"/>
<circle cx="3.25" cy="139.75" r="3.25" fill="#637DD9"/>
<circle cx="178.75" cy="120.25" r="3.25" fill="#637DD9"/>
<circle cx="159.25" cy="120.25" r="3.25" fill="#637DD9"/>
<circle cx="139.75" cy="120.25" r="3.25" fill="#637DD9"/>
<circle cx="120.25" cy="120.25" r="3.25" fill="#637DD9"/>
<circle cx="100.75" cy="120.25" r="3.25" fill="#637DD9"/>
<circle cx="81.25" cy="120.25" r="3.25" fill="#637DD9"/>
<circle cx="61.75" cy="120.25" r="3.25" fill="#637DD9"/>
<circle cx="42.25" cy="120.25" r="3.25" fill="#637DD9"/>
<circle cx="22.75" cy="120.25" r="3.25" fill="#637DD9"/>
<circle cx="3.25" cy="120.25" r="3.25" fill="#637DD9"/>
<circle cx="178.75" cy="100.75" r="3.25" fill="#637DD9"/>
<circle cx="159.25" cy="100.75" r="3.25" fill="#637DD9"/>
<circle cx="139.75" cy="100.75" r="3.25" fill="#637DD9"/>
<circle cx="120.25" cy="100.75" r="3.25" fill="#637DD9"/>
<circle cx="100.75" cy="100.75" r="3.25" fill="#637DD9"/>
<circle cx="81.25" cy="100.75" r="3.25" fill="#637DD9"/>
<circle cx="61.75" cy="100.75" r="3.25" fill="#637DD9"/>
<circle cx="42.25" cy="100.75" r="3.25" fill="#637DD9"/>
<circle cx="22.75" cy="100.75" r="3.25" fill="#637DD9"/>
<circle cx="3.25" cy="100.75" r="3.25" fill="#637DD9"/>
<circle cx="178.75" cy="81.25" r="3.25" fill="#637DD9"/>
<circle cx="159.25" cy="81.25" r="3.25" fill="#637DD9"/>
<circle cx="139.75" cy="81.25" r="3.25" fill="#637DD9"/>
<circle cx="120.25" cy="81.25" r="3.25" fill="#637DD9"/>
<circle cx="100.75" cy="81.25" r="3.25" fill="#637DD9"/>
<circle cx="81.25" cy="81.25" r="3.25" fill="#637DD9"/>
<circle cx="61.75" cy="81.25" r="3.25" fill="#637DD9"/>
<circle cx="42.25" cy="81.25" r="3.25" fill="#637DD9"/>
<circle cx="22.75" cy="81.25" r="3.25" fill="#637DD9"/>
<circle cx="3.25" cy="81.25" r="3.25" fill="#637DD9"/>
<circle cx="178.75" cy="61.75" r="3.25" fill="#637DD9"/>
<circle cx="159.25" cy="61.75" r="3.25" fill="#637DD9"/>
<circle cx="139.75" cy="61.75" r="3.25" fill="#637DD9"/>
<circle cx="120.25" cy="61.75" r="3.25" fill="#637DD9"/>
<circle cx="100.75" cy="61.75" r="3.25" fill="#637DD9"/>
<circle cx="81.25" cy="61.75" r="3.25" fill="#637DD9"/>
<circle cx="61.75" cy="61.75" r="3.25" fill="#637DD9"/>
<circle cx="42.25" cy="61.75" r="3.25" fill="#637DD9"/>
<circle cx="22.75" cy="61.75" r="3.25" fill="#637DD9"/>
<circle cx="3.25" cy="61.75" r="3.25" fill="#637DD9"/>
<circle cx="178.75" cy="42.25" r="3.25" fill="#637DD9"/>
<circle cx="159.25" cy="42.25" r="3.25" fill="#637DD9"/>
<circle cx="139.75" cy="42.25" r="3.25" fill="#637DD9"/>
<circle cx="120.25" cy="42.25" r="3.25" fill="#637DD9"/>
<circle cx="100.75" cy="42.25" r="3.25" fill="#637DD9"/>
<circle cx="81.25" cy="42.25" r="3.25" fill="#637DD9"/>
<circle cx="61.75" cy="42.25" r="3.25" fill="#637DD9"/>
<circle cx="42.25" cy="42.25" r="3.25" fill="#637DD9"/>
<circle cx="22.75" cy="42.25" r="3.25" fill="#637DD9"/>
<circle cx="3.25" cy="42.25" r="3.25" fill="#637DD9"/>
<circle cx="178.75" cy="22.75" r="3.25" fill="#637DD9"/>
<circle cx="159.25" cy="22.75" r="3.25" fill="#637DD9"/>
<circle cx="139.75" cy="22.75" r="3.25" fill="#637DD9"/>
<circle cx="120.25" cy="22.75" r="3.25" fill="#637DD9"/>
<circle cx="100.75" cy="22.75" r="3.25" fill="#637DD9"/>
<circle cx="81.25" cy="22.75" r="3.25" fill="#637DD9"/>
<circle cx="61.75" cy="22.75" r="3.25" fill="#637DD9"/>
<circle cx="42.25" cy="22.75" r="3.25" fill="#637DD9"/>
<circle cx="22.75" cy="22.75" r="3.25" fill="#637DD9"/>
<circle cx="3.25" cy="22.75" r="3.25" fill="#637DD9"/>
<circle cx="178.75" cy="3.25" r="3.25" fill="#637DD9"/>
<circle cx="159.25" cy="3.25" r="3.25" fill="#637DD9"/>
<circle cx="139.75" cy="3.25" r="3.25" fill="#637DD9"/>
<circle cx="120.25" cy="3.25" r="3.25" fill="#637DD9"/>
<circle cx="100.75" cy="3.25" r="3.25" fill="#637DD9"/>
<circle cx="81.25" cy="3.25" r="3.25" fill="#637DD9"/>
<circle cx="61.75" cy="3.25" r="3.25" fill="#637DD9"/>
<circle cx="42.25" cy="3.25" r="3.25" fill="#637DD9"/>
<circle cx="22.75" cy="3.25" r="3.25" fill="#637DD9"/>
<circle cx="3.25" cy="3.25" r="3.25" fill="#637DD9"/>
</g>
</svg>
